<svg width="110" height="28" viewBox="0 0 110 28" fill="none" xmlns="http://www.w3.org/2000/svg">
<path d="M100.355 0.278653H8.68805C8.35391 0.278653 8.02378 0.278653 7.69052 0.280017C7.41156 0.281381 7.13481 0.285343 6.85317 0.288677C6.24131 0.294065 5.63089 0.334348 5.02721 0.409176C4.42438 0.485633 3.84043 0.629776 3.29512 0.83673C2.75047 1.04544 2.25281 1.31663 1.8202 1.64046C1.38531 1.96339 1.02279 2.33665 0.746596 2.74589C0.469635 3.15432 0.27759 3.59198 0.177093 4.04377C0.07564 4.49499 0.0210474 4.95142 0.0138048 5.40895C0.00534877 5.61802 0.00445579 5.82778 0 6.03688V21.7986C0.00445579 22.0103 0.00534877 22.2154 0.0138048 22.4272C0.0210496 22.8847 0.0756422 23.3411 0.177093 23.7923C0.277312 24.2444 0.469369 24.6823 0.746596 25.0909C1.02267 25.4988 1.38523 25.8706 1.8202 26.1917C2.25117 26.517 2.74915 26.7883 3.29512 26.9955C3.84043 27.203 4.42431 27.348 5.02721 27.4256C5.63099 27.4998 6.24135 27.5401 6.85317 27.5462C7.13481 27.5508 7.41156 27.5535 7.69052 27.5535C8.02377 27.5548 8.35392 27.5548 8.68805 27.5548H100.355C100.683 27.5548 101.016 27.5548 101.343 27.5535C101.621 27.5535 101.905 27.5508 102.183 27.5462C102.794 27.5404 103.403 27.5001 104.006 27.4256C104.61 27.3474 105.196 27.2025 105.744 26.9955C106.29 26.7882 106.787 26.5169 107.218 26.1917C107.652 25.8693 108.015 25.4978 108.295 25.0909C108.57 24.682 108.76 24.2441 108.859 23.7923C108.96 23.3411 109.017 22.8848 109.028 22.4272C109.031 22.2154 109.031 22.0103 109.031 21.7986C109.038 21.5509 109.038 21.3045 109.038 21.0527V6.78138C109.038 6.53166 109.038 6.28394 109.031 6.03688C109.031 5.82778 109.031 5.61802 109.028 5.40892C109.017 4.95135 108.96 4.49503 108.859 4.04375C108.76 3.59222 108.569 3.15459 108.295 2.74586C107.732 1.92559 106.84 1.25788 105.744 0.836669C105.196 0.630221 104.61 0.486116 104.006 0.409115C103.403 0.333957 102.794 0.29366 102.183 0.288582C101.905 0.285254 101.621 0.281258 101.343 0.279928C101.016 0.278564 100.683 0.278564 100.355 0.278564V0.278653Z" fill="#1A1A1A"/>
<path d="M19.7274 14.1218C19.7359 13.5527 19.9125 12.9946 20.2407 12.4996C20.5688 12.0045 21.0379 11.5886 21.6043 11.2905C21.2445 10.8506 20.7698 10.4885 20.218 10.2331C19.6662 9.9777 19.0525 9.83597 18.4255 9.81917C17.088 9.69898 15.7914 10.5044 15.1099 10.5044C14.4152 10.5044 13.3658 9.83111 12.2359 9.85101C11.505 9.87123 10.7927 10.0532 10.1683 10.3792C9.544 10.7052 9.02895 11.1641 8.67336 11.7112C7.133 13.9945 8.28197 17.3501 9.7575 19.1958C10.4957 20.0996 11.3585 21.1091 12.4875 21.0733C13.5922 21.0341 14.0048 20.4701 15.3383 20.4701C16.6595 20.4701 17.0466 21.0733 18.1984 21.0505C19.3838 21.034 20.1307 20.1427 20.8431 19.2304C21.3735 18.5865 21.7816 17.8747 22.0524 17.1216C21.3637 16.8722 20.776 16.4548 20.3625 15.9213C19.9491 15.3879 19.7282 14.762 19.7274 14.1218Z" fill="white"/>
<path d="M17.5516 8.60537C18.1979 7.94105 18.5164 7.08718 18.4392 6.2251C17.4518 6.3139 16.5396 6.71796 15.8845 7.35679C15.5642 7.66888 15.3189 8.03195 15.1626 8.42525C15.0063 8.81855 14.9421 9.23437 14.9736 9.64894C15.4675 9.65329 15.9562 9.56164 16.4027 9.38087C16.8493 9.20011 17.2421 8.93495 17.5516 8.60537Z" fill="white"/>
<path d="M33.692 18.7853H29.9221L29.0167 21.0741H27.4199L30.9908 12.6062H32.6498L36.2207 21.0741H34.5966L33.692 18.7853ZM30.3125 17.7292H33.3009L31.8277 14.0146H31.7865L30.3125 17.7292Z" fill="white"/>
<path d="M43.9326 17.9875C43.9326 19.9061 42.7333 21.1387 40.9233 21.1387C40.4649 21.1592 40.0089 21.0688 39.6076 20.8778C39.2064 20.6867 38.8761 20.4028 38.6545 20.0586H38.6203V23.1165H37.1401V14.9003H38.5729V15.9272H38.6001C38.8318 15.5845 39.1677 15.3021 39.572 15.1099C39.9763 14.9177 40.4339 14.823 40.8961 14.8357C42.7262 14.8357 43.9326 16.0744 43.9326 17.9875ZM42.4113 17.9875C42.4113 16.7376 41.6568 15.9159 40.5057 15.9159C39.3748 15.9159 38.6141 16.7549 38.6141 17.9875C38.6141 19.2315 39.3748 20.0646 40.5057 20.0646C41.6568 20.0646 42.4113 19.2488 42.4113 17.9875Z" fill="white"/>
<path d="M51.8692 17.9875C51.8692 19.9061 50.6698 21.1387 48.8599 21.1387C48.4014 21.1592 47.9454 21.0688 47.5442 20.8778C47.1429 20.6867 46.8126 20.4028 46.5911 20.0585H46.5568V23.1165H45.0767V14.9003H46.5093V15.9272H46.5366C46.7683 15.5845 47.1042 15.3021 47.5085 15.1099C47.9128 14.9177 48.3704 14.823 48.8326 14.8357C50.6628 14.8357 51.8692 16.0743 51.8692 17.9875ZM50.3478 17.9875C50.3478 16.7376 49.5933 15.9159 48.4422 15.9159C47.3113 15.9159 46.5506 16.7549 46.5506 17.9875C46.5506 19.2315 47.3113 20.0646 48.4422 20.0646C49.5933 20.0646 50.3478 19.2488 50.3478 17.9875H50.3478Z" fill="white"/>
<path d="M57.1143 18.7147C57.224 19.5545 58.1768 20.1058 59.4788 20.1058C60.7264 20.1058 61.6239 19.5544 61.6239 18.7973C61.6239 18.14 61.0826 17.7465 59.8008 17.4768L58.519 17.2124C56.7028 16.8368 55.8597 16.1096 55.8597 14.9296C55.8597 13.4686 57.3469 12.465 59.4586 12.465C61.5485 12.465 62.9812 13.4686 63.0294 14.9296H61.5352C61.4458 14.0845 60.6299 13.5745 59.4375 13.5745C58.2452 13.5745 57.4293 14.0905 57.4293 14.8417C57.4293 15.4404 57.9504 15.7926 59.2252 16.0623L60.3149 16.2914C62.3441 16.7023 63.1873 17.4002 63.1873 18.6388C63.1873 20.223 61.7134 21.2152 59.3691 21.2152C57.1757 21.2152 55.6948 20.2463 55.5991 18.7147L57.1143 18.7147Z" fill="white"/>
<path d="M66.3818 13.4393V14.9004H67.753V15.9039H66.3818V19.3074C66.3818 19.8362 66.6564 20.0826 67.2591 20.0826C67.4219 20.0801 67.5845 20.0704 67.746 20.0532V21.0508C67.475 21.0942 67.1996 21.1138 66.9239 21.1094C65.464 21.1094 64.8947 20.6399 64.8947 19.4426V15.9039H63.8462V14.9004H64.8946V13.4393H66.3818Z" fill="white"/>
<path d="M68.5474 17.9875C68.5474 16.045 69.8836 14.8244 71.9673 14.8244C74.058 14.8244 75.3881 16.045 75.3881 17.9875C75.3881 19.9354 74.065 21.1507 71.9673 21.1507C69.8704 21.1507 68.5474 19.9353 68.5474 17.9875ZM73.8799 17.9875C73.8799 16.655 73.1667 15.8686 71.9673 15.8686C70.768 15.8686 70.0555 16.661 70.0555 17.9875C70.0555 19.3254 70.768 20.1058 71.9673 20.1058C73.1667 20.1058 73.8799 19.3254 73.8799 17.9875H73.8799Z" fill="white"/>
<path d="M76.6084 14.9003H78.0201V15.9511H78.0543C78.1499 15.623 78.3744 15.3329 78.6903 15.1298C79.0062 14.9267 79.3941 14.8228 79.7888 14.8357C79.9594 14.8352 80.1295 14.8511 80.2959 14.883V16.0684C80.0806 16.012 79.856 15.9861 79.6309 15.9918C79.4159 15.9843 79.2015 16.0168 79.0025 16.0869C78.8035 16.1571 78.6246 16.2633 78.4781 16.3982C78.3316 16.5332 78.2209 16.6937 78.1536 16.8687C78.0864 17.0437 78.0642 17.2291 78.0885 17.4122V21.0741H76.6084L76.6084 14.9003Z" fill="white"/>
<path d="M87.1204 19.2608C86.9213 20.3815 85.6465 21.1507 84.0155 21.1507C81.9177 21.1507 80.6157 19.9473 80.6157 18.0168C80.6157 16.0803 81.9247 14.8244 83.9532 14.8244C85.9483 14.8244 87.2029 15.9978 87.2029 17.8697V18.3038H82.1099V18.3804C82.0864 18.6076 82.1196 18.8365 82.2073 19.0519C82.2951 19.2673 82.4354 19.4642 82.6188 19.6296C82.8023 19.795 83.0248 19.9251 83.2715 20.0112C83.5182 20.0973 83.7834 20.1375 84.0497 20.1291C84.3995 20.1572 84.7505 20.0878 85.0505 19.9314C85.3505 19.7749 85.5836 19.5397 85.7149 19.2608L87.1204 19.2608ZM82.1169 17.4182H85.7219C85.7352 17.2139 85.699 17.0094 85.6157 16.8177C85.5323 16.6259 85.4035 16.451 85.2375 16.3038C85.0714 16.1567 84.8716 16.0406 84.6506 15.9627C84.4296 15.8848 84.1922 15.8469 83.9532 15.8513C83.7122 15.85 83.4733 15.8897 83.2502 15.9679C83.0272 16.0462 82.8244 16.1614 82.6537 16.3071C82.483 16.4528 82.3476 16.626 82.2555 16.8167C82.1634 17.0074 82.1162 17.2118 82.1169 17.4182V17.4182Z" fill="white"/>
<path d="M30.1272 6.2324C30.4375 6.21333 30.7489 6.25347 31.0389 6.34992C31.3289 6.44636 31.5903 6.59671 31.8042 6.79011C32.0182 6.98352 32.1793 7.21516 32.276 7.46833C32.3727 7.7215 32.4025 7.98989 32.3634 8.25414C32.3634 9.55402 31.5428 10.3012 30.1272 10.3012H28.4106V6.2324H30.1272ZM29.1488 9.7258H30.0448C30.2665 9.73714 30.4884 9.70602 30.6943 9.63468C30.9003 9.56334 31.085 9.45359 31.2351 9.31341C31.3853 9.17324 31.497 9.00617 31.5622 8.82436C31.6274 8.64255 31.6444 8.45058 31.612 8.26243C31.6421 8.07502 31.6233 7.88424 31.5571 7.70377C31.4909 7.52329 31.3789 7.35759 31.2291 7.21852C31.0793 7.07946 30.8955 6.97049 30.6907 6.89941C30.486 6.82833 30.2654 6.79691 30.0448 6.80739H29.1488V9.7258Z" fill="white"/>
<path d="M33.197 8.76457C33.1744 8.56278 33.2014 8.35919 33.2761 8.16685C33.3509 7.9745 33.4717 7.79766 33.631 7.64765C33.7902 7.49764 33.9843 7.37779 34.2008 7.29577C34.4174 7.21375 34.6515 7.17139 34.8883 7.17139C35.125 7.17139 35.3592 7.21375 35.5757 7.29577C35.7922 7.37779 35.9863 7.49764 36.1456 7.64765C36.3048 7.79766 36.4257 7.9745 36.5004 8.16685C36.5752 8.35919 36.6021 8.56278 36.5796 8.76457C36.6026 8.96657 36.5759 9.17044 36.5014 9.3631C36.4268 9.55575 36.306 9.73293 36.1468 9.88323C35.9875 10.0335 35.7932 10.1536 35.5765 10.2358C35.3597 10.318 35.1253 10.3605 34.8883 10.3605C34.6512 10.3605 34.4168 10.318 34.2001 10.2358C33.9833 10.1536 33.7891 10.0335 33.6298 9.88323C33.4705 9.73293 33.3497 9.55575 33.2752 9.3631C33.2006 9.17044 33.174 8.96657 33.197 8.76457ZM35.8516 8.76457C35.8516 8.09899 35.5023 7.70976 34.8894 7.70976C34.2742 7.70976 33.9281 8.09899 33.9281 8.76458C33.9281 9.4355 34.2742 9.82173 34.8894 9.82173C35.5024 9.82172 35.8516 9.43283 35.8516 8.76457H35.8516Z" fill="white"/>
<path d="M41.0762 10.3012H40.342L39.6008 8.03968H39.5448L38.8066 10.3012H38.0794L37.0908 7.23059H37.8087L38.4512 9.57361H38.5041L39.2414 7.23059H39.9204L40.6578 9.57361H40.7138L41.3531 7.23059H42.0609L41.0762 10.3012Z" fill="white"/>
<path d="M42.8926 7.23057H43.5739V7.71835H43.6268C43.7165 7.54316 43.8679 7.3963 44.0597 7.29823C44.2516 7.20017 44.4744 7.1558 44.6971 7.1713C44.8716 7.16006 45.0468 7.18259 45.2097 7.23721C45.3727 7.29183 45.5192 7.37714 45.6384 7.48682C45.7576 7.5965 45.8465 7.72774 45.8984 7.87081C45.9504 8.01389 45.964 8.16514 45.9384 8.31335V10.3011H45.2306V8.46552C45.2306 7.97208 44.9802 7.72668 44.4567 7.72668C44.3382 7.72196 44.22 7.73922 44.11 7.77729C44.0001 7.81536 43.901 7.87334 43.8197 7.94725C43.7383 8.02116 43.6766 8.10925 43.6388 8.20548C43.6009 8.30172 43.5878 8.40383 43.6004 8.50481V10.3011H42.8926L42.8926 7.23057Z" fill="white"/>
<path d="M47.0659 6.03192H47.7737V10.3011H47.0659V6.03192Z" fill="white"/>
<path d="M48.7575 8.76457C48.735 8.56277 48.7619 8.35916 48.8367 8.16681C48.9115 7.97446 49.0323 7.79761 49.1916 7.6476C49.3509 7.49759 49.545 7.37773 49.7615 7.29571C49.9781 7.21369 50.2122 7.17133 50.449 7.17133C50.6858 7.17133 50.9199 7.21369 51.1365 7.29571C51.353 7.37773 51.5471 7.49759 51.7064 7.6476C51.8657 7.79761 51.9865 7.97446 52.0613 8.16681C52.1361 8.35916 52.163 8.56277 52.1405 8.76457C52.1635 8.96657 52.1368 9.17045 52.0622 9.36311C51.9877 9.55576 51.8668 9.73293 51.7075 9.88322C51.5482 10.0335 51.354 10.1536 51.1372 10.2358C50.9205 10.318 50.6861 10.3605 50.449 10.3605C50.212 10.3605 49.9775 10.318 49.7608 10.2358C49.544 10.1536 49.3498 10.0335 49.1905 9.88322C49.0312 9.73293 48.9103 9.55576 48.8358 9.36311C48.7612 9.17045 48.7345 8.96657 48.7575 8.76457ZM51.4121 8.76457C51.4121 8.09898 51.0629 7.70975 50.45 7.70975C49.8347 7.70975 49.4886 8.09898 49.4886 8.76458C49.4886 9.43549 49.8348 9.82173 50.45 9.82173C51.0629 9.82172 51.4121 9.43282 51.4121 8.76457H51.4121Z" fill="white"/>
<path d="M52.8857 9.43279C52.8857 8.88008 53.3664 8.56144 54.2197 8.51615L55.1911 8.46821V8.20317C55.1911 7.87886 54.9407 7.69574 54.4569 7.69574C54.0618 7.69574 53.788 7.81993 53.7094 8.03702H53.0242C53.0965 7.50961 53.676 7.17133 54.4896 7.17133C55.3887 7.17133 55.8958 7.55456 55.8958 8.20317V10.3012H55.2145V9.86964H55.1585C55.0448 10.0244 54.8852 10.1506 54.6959 10.2353C54.5067 10.32 54.2945 10.3602 54.0812 10.3517C53.9307 10.3652 53.7785 10.3514 53.6345 10.3114C53.4905 10.2713 53.358 10.2059 53.2453 10.1194C53.1327 10.0328 53.0425 9.92695 52.9806 9.80869C52.9186 9.69044 52.8863 9.56239 52.8857 9.43279ZM55.1911 9.17042V8.91371L54.3153 8.96165C53.8214 8.98995 53.5974 9.13379 53.5974 9.40449C53.5974 9.68084 53.8774 9.84166 54.2625 9.84166C54.3753 9.85144 54.4892 9.84169 54.5976 9.81299C54.7059 9.78428 54.8064 9.73722 54.893 9.67459C54.9796 9.61197 55.0507 9.53506 55.1019 9.44844C55.1531 9.36183 55.1835 9.26728 55.1911 9.17042Z" fill="white"/>
<path d="M56.8262 8.76454C56.8262 7.7943 57.4087 7.17965 58.3149 7.17965C58.539 7.17081 58.7615 7.21677 58.9562 7.31216C59.151 7.40756 59.31 7.54844 59.4147 7.71835H59.4676V6.03192H60.1753V10.3011H59.4971V9.81602H59.4411C59.3283 9.98478 59.1638 10.1239 58.9653 10.2183C58.7667 10.3128 58.5418 10.3589 58.3149 10.3517C57.4025 10.3518 56.8262 9.73712 56.8262 8.76454ZM57.5573 8.76454C57.5573 9.41582 57.9159 9.80771 58.5156 9.80771C59.1121 9.80771 59.4808 9.41016 59.4808 8.76721C59.4808 8.12726 59.1082 7.72404 58.5156 7.72404C57.9198 7.72404 57.5573 8.1186 57.5573 8.76454H57.5573Z" fill="white"/>
<path d="M63.1037 8.76457C63.0812 8.56278 63.1081 8.35919 63.1829 8.16685C63.2576 7.9745 63.3785 7.79766 63.5377 7.64765C63.697 7.49764 63.8911 7.37779 64.1076 7.29577C64.3241 7.21375 64.5583 7.17139 64.795 7.17139C65.0318 7.17139 65.2659 7.21375 65.4824 7.29577C65.699 7.37779 65.8931 7.49764 66.0523 7.64765C66.2116 7.79766 66.3324 7.9745 66.4072 8.16685C66.4819 8.35919 66.5089 8.56278 66.4863 8.76457C66.5093 8.96657 66.4827 9.17044 66.4081 9.3631C66.3336 9.55575 66.2128 9.73293 66.0535 9.88323C65.8942 10.0335 65.7 10.1536 65.4832 10.2358C65.2665 10.318 65.0321 10.3605 64.795 10.3605C64.558 10.3605 64.3235 10.318 64.1068 10.2358C63.8901 10.1536 63.6958 10.0335 63.5365 9.88323C63.3772 9.73293 63.2565 9.55575 63.1819 9.3631C63.1074 9.17044 63.0807 8.96657 63.1037 8.76457ZM65.7583 8.76457C65.7583 8.09899 65.4091 7.70976 64.7962 7.70976C64.1809 7.70976 63.8349 8.09899 63.8349 8.76458C63.8349 9.4355 64.181 9.82173 64.7962 9.82173C65.4091 9.82172 65.7583 9.43283 65.7583 8.76457Z" fill="white"/>
<path d="M67.436 7.23057H68.1174V7.71835H68.1703C68.26 7.54316 68.4113 7.3963 68.6032 7.29823C68.795 7.20017 69.0178 7.1558 69.2405 7.1713C69.415 7.16006 69.5902 7.18259 69.7532 7.23721C69.9161 7.29183 70.0627 7.37714 70.1819 7.48682C70.3011 7.5965 70.39 7.72774 70.4419 7.87081C70.4938 8.01389 70.5075 8.16514 70.4819 8.31335V10.3011H69.7741V8.46552C69.7741 7.97208 69.5236 7.72668 69.0002 7.72668C68.8817 7.72196 68.7634 7.73922 68.6535 7.77729C68.5435 7.81536 68.4445 7.87334 68.3631 7.94725C68.2818 8.02116 68.2201 8.10925 68.1822 8.20548C68.1444 8.30172 68.1313 8.40383 68.1438 8.50481V10.3011H67.436V7.23057Z" fill="white"/>
<path d="M74.4815 6.46613V7.24459H75.2586V7.75502H74.4815V9.33392C74.4815 9.65556 74.6363 9.7964 74.9887 9.7964C75.0789 9.79615 75.169 9.79148 75.2586 9.78242V10.2872C75.1314 10.3067 75.0027 10.317 74.8735 10.3181C74.0864 10.3181 73.773 10.0811 73.773 9.48907V7.75499H73.2036V7.24456H73.773V6.46613H74.4815Z" fill="white"/>
<path d="M76.2251 6.03192H76.9267V7.72403H76.9827C77.0768 7.5472 77.2322 7.39951 77.4279 7.30108C77.6236 7.20264 77.85 7.15826 78.0762 7.17398C78.2498 7.16589 78.4233 7.19071 78.5844 7.24665C78.7456 7.3026 78.8903 7.38829 79.0082 7.49763C79.1262 7.60696 79.2145 7.73724 79.2669 7.87917C79.3193 8.0211 79.3345 8.17118 79.3113 8.3187V10.3012H78.6028V8.46819C78.6028 7.97774 78.336 7.72935 77.8359 7.72935C77.7143 7.72081 77.5919 7.73513 77.4774 7.77131C77.3629 7.80748 77.259 7.86465 77.173 7.93879C77.087 8.01294 77.0209 8.10229 76.9795 8.20057C76.938 8.29886 76.9221 8.40372 76.9329 8.50781V10.3011H76.2251L76.2251 6.03192Z" fill="white"/>
<path d="M83.4384 9.47207C83.3423 9.7527 83.1339 9.99545 82.8498 10.1578C82.5657 10.3202 82.224 10.3919 81.8844 10.3604C81.6481 10.3658 81.4133 10.327 81.1963 10.2469C80.9792 10.1667 80.7852 10.0471 80.6275 9.8963C80.4699 9.74551 80.3525 9.56715 80.2835 9.37361C80.2144 9.18007 80.1954 8.97599 80.2277 8.77552C80.1962 8.57444 80.2156 8.36991 80.2845 8.1758C80.3534 7.98168 80.4702 7.80249 80.627 7.65038C80.7838 7.49826 80.9769 7.37677 81.1933 7.29412C81.4097 7.21146 81.6443 7.16959 81.8813 7.17132C82.8792 7.17132 83.4812 7.75503 83.4812 8.71924V8.93069H80.9487V8.96465C80.9376 9.07733 80.9542 9.19075 80.9973 9.29764C81.0404 9.40453 81.1091 9.50252 81.199 9.58535C81.289 9.66817 81.3981 9.73399 81.5195 9.77858C81.6409 9.82317 81.7718 9.84556 81.9038 9.84431C82.0731 9.86171 82.2447 9.83561 82.3966 9.76932C82.5485 9.70303 82.674 9.59956 82.7571 9.47205L83.4384 9.47207ZM80.9487 8.48252H82.7602C82.7691 8.37946 82.7527 8.27595 82.7121 8.17863C82.6716 8.08131 82.6077 7.99233 82.5245 7.91742C82.4414 7.84251 82.3408 7.78332 82.2294 7.74365C82.1179 7.70398 81.998 7.68471 81.8774 7.68707C81.755 7.68576 81.6335 7.70544 81.5201 7.74495C81.4067 7.78446 81.3037 7.84301 81.2171 7.91714C81.1306 7.99127 81.0623 8.07949 81.0161 8.17659C80.97 8.27369 80.9471 8.37771 80.9487 8.48252H80.9487Z" fill="white"/>
</svg>
