<svg width="100" height="100" viewBox="0 0 100 100" fill="none" xmlns="http://www.w3.org/2000/svg">
<path fill-rule="evenodd" clip-rule="evenodd" d="M58.1675 0.0819131C69.8503 0.868523 80.1648 7.99596 87.9965 17.6263C95.3922 26.7204 98.4977 38.4463 99.2927 50.6519C100.167 64.0844 101.824 79.9899 92.6326 88.8104C83.6024 97.4758 70.0586 88.8041 58.1675 90.1155C43.4847 91.7348 28.6363 105.828 16.0768 97.2532C2.82534 88.206 -1.34971 67.7838 0.365186 50.6519C1.94659 34.8536 13.2114 23.2041 24.4756 13.3494C34.198 4.84342 45.7989 -0.750872 58.1675 0.0819131Z" fill="#FFF1EA"/>
<g clip-path="url(#clip0_639_676)">
<path d="M72.6667 21.6667H27.3334C24.2167 21.6667 21.6667 24.2167 21.6667 27.3334V78.3334L33 67H72.6667C75.7834 67 78.3334 64.45 78.3334 61.3334V27.3334C78.3334 24.2167 75.7834 21.6667 72.6667 21.6667ZM72.6667 61.3334H30.6484L27.3334 64.6484V27.3334H72.6667V61.3334ZM35.8334 41.5H41.5V47.1667H35.8334V41.5ZM58.5 41.5H64.1667V47.1667H58.5V41.5ZM47.1667 41.5H52.8334V47.1667H47.1667V41.5Z" fill="#EFA191"/>
</g>
<defs>
<clipPath id="clip0_639_676">
<rect width="68" height="68" fill="white" transform="translate(16 16)"/>
</clipPath>
</defs>
</svg>
