<svg width="100" height="100" viewBox="0 0 100 100" fill="none" xmlns="http://www.w3.org/2000/svg">
<path fill-rule="evenodd" clip-rule="evenodd" d="M51.3266 0.105217C64.4232 1.69266 65.8847 21.1829 74.6321 31.4711C82.3277 40.5223 95.9592 44.0118 98.6599 55.7762C101.815 69.5225 99.6707 86.2775 89.3036 95.3821C79.225 104.233 64.4981 97.7037 51.3266 97.3449C38.7712 97.0029 25.1885 101.419 15.283 93.3659C4.60451 84.6843 -1.16309 69.8255 0.19648 55.7762C1.46882 42.6285 13.1265 34.6215 21.8913 25.0784C30.9866 15.1753 38.2656 -1.47792 51.3266 0.105217Z" fill="#FFEECF"/>
<g clip-path="url(#clip0_639_685)">
<path d="M72.695 59.5767C69.21 59.5767 65.8383 59.01 62.6933 57.99C61.7017 57.65 60.5967 57.905 59.8317 58.67L55.3833 64.2517C47.365 60.4267 39.8567 53.2017 35.8617 44.9L41.3867 40.1967C42.1517 39.4033 42.3783 38.2983 42.0667 37.3067C41.0183 34.1617 40.48 30.79 40.48 27.305C40.48 25.775 39.205 24.5 37.675 24.5H27.8717C26.3417 24.5 24.5 25.18 24.5 27.305C24.5 53.6267 46.4017 75.5 72.695 75.5C74.7067 75.5 75.5 73.715 75.5 72.1567V62.3817C75.5 60.8517 74.225 59.5767 72.695 59.5767Z" fill="#DD6666"/>
</g>
<defs>
<clipPath id="clip0_639_685">
<rect width="68" height="68" fill="white" transform="translate(16 16)"/>
</clipPath>
</defs>
</svg>
