<svg width="100" height="100" viewBox="0 0 100 100" fill="none" xmlns="http://www.w3.org/2000/svg">
<path fill-rule="evenodd" clip-rule="evenodd" d="M42.5333 0.230022C54.1059 1.83415 58.8001 16.5643 67.7564 24.8018C78.5413 34.721 96.6917 37.4342 99.4835 52.6095C102.41 68.5177 92.4653 84.9693 80.5916 94.5675C69.906 103.205 55.7782 99.0569 42.5333 98.6456C29.9127 98.2537 15.4821 102.117 6.5603 92.2685C-2.35943 82.422 0.186388 66.5073 0.830044 52.6095C1.42663 39.7279 2.3374 26.4973 10.0553 16.8036C18.2363 6.52823 30.2287 -1.47557 42.5333 0.230022Z" fill="#FFD6F1"/>
<path d="M43.998 88.0105L74.0275 57.981C75.2858 56.7227 76 54.9882 76 53.1858L76 28.8017C76 25.0608 72.9392 22 69.1983 22L44.8142 22C43.0118 22 41.2773 22.7142 40.019 24.0065L9.98949 54.036C7.33683 56.6887 7.33683 61.0077 9.98949 63.6604L34.3736 88.0445C37.0263 90.6972 41.3113 90.6972 43.998 88.0105ZM14.7847 58.8312L44.8142 28.8017L69.1983 28.8017L69.1983 53.1858L39.1688 83.2153L14.7847 58.8312Z" fill="#EFA191"/>
<path d="M55.5949 37.3039C55.5949 40.1212 57.8789 42.4051 60.6962 42.4051C63.5136 42.4051 65.7975 40.1212 65.7975 37.3039C65.7975 34.4865 63.5136 32.2026 60.6962 32.2026C57.8789 32.2026 55.5949 34.4865 55.5949 37.3039Z" fill="#EFA191"/>
</svg>
