<svg width="110" height="28" viewBox="0 0 110 28" fill="none" xmlns="http://www.w3.org/2000/svg">
<g clip-path="url(#clip0_218_3926)">
<path fill-rule="evenodd" clip-rule="evenodd" d="M105.96 27.5549H5.00137C2.77479 27.5549 0.961426 26.0176 0.961426 24.1453V3.68821C0.961426 1.80914 2.77479 0.278687 5.00137 0.278687H105.96C108.185 0.278687 110 1.80914 110 3.68821V24.1453C110 26.0176 108.185 27.5549 105.96 27.5549Z" fill="#1A1A1A"/>
<path d="M58.4031 9.30157C57.6749 9.30157 57.0611 9.08561 56.5757 8.66048C56.0943 8.24726 55.8255 7.67758 55.8375 7.09601C55.8375 6.47532 56.0863 5.94987 56.5757 5.53324C57.0591 5.10812 57.6729 4.89215 58.4011 4.89215C59.1212 4.89215 59.735 5.10812 60.2285 5.53324C60.7179 5.96347 60.9667 6.48893 60.9667 7.09601C60.9586 7.7184 60.7099 8.24385 60.2285 8.65878C59.7451 9.08731 59.1312 9.30157 58.4031 9.30157ZM36.7372 9.30157C36.0251 9.30157 35.4072 9.08901 34.9017 8.66898C34.4003 8.25066 34.1455 7.7218 34.1455 7.09771C34.1455 6.47362 34.4003 5.94477 34.9017 5.52644C35.3972 5.10642 36.015 4.89385 36.7372 4.89385C37.0902 4.89385 37.4332 4.95337 37.7622 5.07411C38.0851 5.19144 38.3479 5.35129 38.5425 5.54685L38.5906 5.59616L38.047 6.0485L37.9909 5.99238C37.6839 5.68289 37.2727 5.53154 36.7291 5.53154C36.2437 5.53154 35.8205 5.67779 35.4714 5.96687C35.1204 6.25766 34.9419 6.63857 34.9419 7.09941C34.9419 7.56025 35.1204 7.94116 35.4714 8.23195C35.8205 8.52104 36.2437 8.66728 36.7291 8.66728C37.2467 8.66728 37.6819 8.52104 38.0209 8.23195C38.2215 8.0619 38.3459 7.82383 38.39 7.52284H36.6469V6.88685H39.1382L39.1483 6.94467C39.1663 7.0518 39.1844 7.16233 39.1844 7.26436C39.1844 7.85104 38.9758 8.32548 38.5625 8.67578C38.0932 9.09071 37.4793 9.30157 36.7372 9.30157ZM65.5442 9.21144H64.7759L62.423 6.01959L62.443 6.59436V9.20974H61.6747V4.98398H62.5513L62.5754 5.01629L64.7879 8.02279L64.7679 7.44972V4.98398H65.5442V9.21144ZM52.6301 9.21144H51.8518V5.61997H50.5018V4.98398H53.978V5.61997H52.6281V9.21144H52.6301ZM49.8679 9.21144H49.0916V4.98398H49.8679V9.21144ZM45.505 9.21144H44.7287V5.61997H43.3788V4.98398H46.855V5.61997H45.505V9.21144ZM42.8873 9.20464H39.9105V4.98398H42.8873V5.61997H40.6888V6.77972H42.6727V7.4089H40.6888V8.56865H42.8873V9.20464ZM57.1454 8.22345C57.4924 8.51764 57.9137 8.66558 58.4031 8.66558C58.9066 8.66558 59.3178 8.52104 59.6608 8.22345C60.0018 7.93436 60.1743 7.55515 60.1743 7.09771C60.1743 6.64027 60.0018 6.25936 59.6628 5.97197C59.3158 5.67779 58.8925 5.52984 58.4051 5.52984C57.9016 5.52984 57.4904 5.67439 57.1494 5.97197C56.8084 6.26106 56.6359 6.64027 56.6359 7.09771C56.6359 7.55515 56.8064 7.93606 57.1454 8.22345Z" fill="white"/>
<path fill-rule="evenodd" clip-rule="evenodd" d="M55.7656 15.114C53.87 15.114 52.3334 16.3332 52.3334 18.015C52.3334 19.6815 53.88 20.9161 55.7656 20.9161C57.6612 20.9161 59.1977 19.6883 59.1977 18.015C59.1977 16.3332 57.6612 15.114 55.7656 15.114ZM55.7656 19.7665C54.7285 19.7665 53.8359 19.0387 53.8359 18.0082C53.8359 16.9624 54.7305 16.2499 55.7656 16.2499C56.8027 16.2499 57.6953 16.9624 57.6953 18.0082C57.6973 19.0455 56.8027 19.7665 55.7656 19.7665ZM48.2774 15.114C46.3818 15.114 44.8453 16.3332 44.8453 18.015C44.8453 19.6815 46.3918 20.9161 48.2774 20.9161C50.173 20.9161 51.7096 19.6883 51.7096 18.015C51.7096 16.3332 50.171 15.114 48.2774 15.114ZM48.2774 19.7665C47.2404 19.7665 46.3477 19.0387 46.3477 18.0082C46.3477 16.9624 47.2424 16.2499 48.2774 16.2499C49.3145 16.2499 50.2071 16.9624 50.2071 18.0082C50.2071 19.0455 49.3145 19.7665 48.2774 19.7665ZM39.3671 15.9999V17.2277H42.8433C42.737 17.9164 42.4682 18.4248 42.057 18.7734C41.5475 19.2054 40.7612 19.6747 39.3751 19.6747C37.2388 19.6747 35.5678 18.2123 35.5678 16.4012C35.5678 14.5902 37.2388 13.1278 39.3751 13.1278C40.5285 13.1278 41.369 13.5138 41.9928 14.0069L43.0199 13.1363C42.1533 12.4322 40.9999 11.8932 39.3831 11.8932C36.4524 11.8932 33.9932 13.9168 33.9932 16.3944C33.9932 18.8789 36.4504 20.8957 39.3831 20.8957C40.9658 20.8957 42.1533 20.457 43.0921 19.6305C44.0489 18.8194 44.3518 17.6749 44.3518 16.7515C44.3518 16.4642 44.3257 16.2057 44.2716 15.9863H39.3651C39.3671 15.9846 39.3671 15.9999 39.3671 15.9999ZM75.8129 16.9556C75.526 16.3043 74.6595 15.1072 72.8822 15.1072C71.121 15.1072 69.6567 16.2822 69.6567 18.0082C69.6567 19.6373 71.105 20.9093 73.0527 20.9093C74.6174 20.9093 75.5281 20.0981 75.9032 19.622L74.7417 18.9622C74.3566 19.4468 73.821 19.7648 73.0608 19.7648C72.2925 19.7648 71.7549 19.469 71.3978 18.8857L75.9734 17.2787C75.9734 17.2804 75.8129 16.9556 75.8129 16.9556ZM71.1471 17.9249C71.111 16.8043 72.1741 16.2346 72.9344 16.2346C73.5342 16.2346 74.0336 16.4846 74.2041 16.8485L71.1471 17.9249ZM67.4301 20.7358H68.9325V12.2129H67.4301V20.7358ZM64.9628 15.7584H64.9086C64.5696 15.4166 63.9257 15.1072 63.1033 15.1072C61.3962 15.1072 59.8236 16.3808 59.8236 18.0167C59.8236 19.6458 61.3882 20.9042 63.1033 20.9042C63.9157 20.9042 64.5696 20.593 64.9086 20.2444H64.9628V20.661C64.9628 21.768 64.2647 22.3649 63.1394 22.3649C62.2187 22.3649 61.647 21.8038 61.4143 21.3344L60.1084 21.797C60.4835 22.5622 61.4845 23.5094 63.1374 23.5094C64.8986 23.5094 66.391 22.6302 66.391 20.4859V15.2806H64.9708V15.7584C64.9728 15.7584 64.9628 15.7584 64.9628 15.7584ZM63.2377 19.7665C62.2006 19.7665 61.3341 19.0319 61.3341 18.0167C61.3341 16.993 62.2006 16.2516 63.2377 16.2516C64.2647 16.2516 65.0611 17.0015 65.0611 18.0167C65.0711 19.0319 64.2667 19.7665 63.2377 19.7665ZM82.8477 12.2129H79.2551V20.7358H80.7575V17.5083H82.8497C84.5126 17.5083 86.1475 16.4863 86.1475 14.864C86.1475 13.2417 84.5187 12.2129 82.8477 12.2129ZM82.8918 16.3179H80.7555V13.393H82.8918C84.0172 13.393 84.6531 14.1804 84.6531 14.8555C84.6531 15.5238 84.0091 16.3179 82.8918 16.3179ZM92.1693 15.0986C91.0781 15.0986 89.9527 15.5085 89.4874 16.4012L90.8193 16.8706C91.1061 16.4012 91.6317 16.2414 92.1873 16.2414C92.9656 16.2414 93.752 16.6359 93.77 17.3399V17.43C93.5012 17.3008 92.9115 17.1035 92.2054 17.1035C90.7671 17.1035 89.3088 17.7701 89.3088 19.02C89.3088 20.1645 90.4883 20.8991 91.8022 20.8991C92.8112 20.8991 93.3668 20.5131 93.7139 20.0658H93.768V20.7256H95.2163V17.4607C95.2163 15.9404 93.8844 15.0986 92.1693 15.0986ZM91.9807 19.7665C91.4893 19.7665 90.8012 19.5625 90.8012 19.0387C90.8012 18.3789 91.6598 18.129 92.3919 18.129C93.0539 18.129 93.3668 18.2497 93.76 18.4163C93.6517 19.1816 92.8894 19.7597 91.9807 19.7665ZM100.5 15.2806L98.7748 18.9775H98.7207L96.9334 15.2806H95.3166L97.9985 20.4484L96.47 23.3206H98.0346L102.161 15.2806H100.5ZM86.9759 20.7358H88.4784V12.2129H86.9759V20.7358Z" fill="white"/>
<path fill-rule="evenodd" clip-rule="evenodd" d="M9.35439 5.41591C9.1217 5.62847 8.9873 5.95327 8.9873 6.3784V21.4568C8.9873 21.8819 9.1217 22.2067 9.36241 22.4108L9.4246 22.4567L19.3901 14.0086V13.8198L9.41657 5.37L9.35439 5.41591Z" fill="url(#paint0_linear_218_3926)"/>
<path fill-rule="evenodd" clip-rule="evenodd" d="M22.7057 16.8331L19.3818 14.0154V13.8181L22.7057 11.0004L22.7779 11.0378L26.7095 12.9321C27.8349 13.4695 27.8349 14.3572 26.7095 14.9013L22.7779 16.7957L22.7057 16.8331Z" fill="url(#paint1_linear_218_3926)"/>
<path fill-rule="evenodd" clip-rule="evenodd" d="M22.7777 16.7957L19.3817 13.9167L9.354 22.4176C9.72109 22.7509 10.3369 22.7883 11.0249 22.4635L22.7777 16.7957Z" fill="url(#paint2_linear_218_3926)"/>
<path fill-rule="evenodd" clip-rule="evenodd" d="M22.7777 11.0378L11.0249 5.37853C10.3369 5.04523 9.71908 5.09114 9.354 5.42444L19.3817 13.9168L22.7777 11.0378Z" fill="url(#paint3_linear_218_3926)"/>
<path opacity="0.2" fill-rule="evenodd" clip-rule="evenodd" d="M22.7058 16.7346L11.0333 22.3564C10.3813 22.6744 9.7996 22.6523 9.42449 22.3632L9.3623 22.4159L9.42449 22.4619C9.7996 22.7492 10.3813 22.773 11.0333 22.455L22.7861 16.7958L22.7058 16.7346Z" fill="#1A1A1A"/>
<path opacity="0.12" fill-rule="evenodd" clip-rule="evenodd" d="M26.7097 14.8027L22.6958 16.7345L22.768 16.7957L26.6996 14.9013C27.2633 14.6293 27.5401 14.2722 27.5401 13.9167C27.506 14.2432 27.2192 14.5527 26.7097 14.8027Z" fill="#1A1A1A"/>
<path opacity="0.25" fill-rule="evenodd" clip-rule="evenodd" d="M11.0253 5.47714L26.7097 13.0308C27.2192 13.274 27.5061 13.592 27.5502 13.9168C27.5502 13.5614 27.2734 13.2043 26.7097 12.9322L11.0253 5.37851C9.9 4.83265 8.9873 5.28838 8.9873 6.37841V6.47704C8.9873 5.38531 9.9 4.93808 11.0253 5.47714Z" fill="white"/>
</g>
<defs>
<linearGradient id="paint0_linear_218_3926" x1="18.4962" y1="6.21572" x2="2.93699" y2="11.1061" gradientUnits="userSpaceOnUse">
<stop stop-color="#00A0FF"/>
<stop offset="0.00657" stop-color="#00A1FF"/>
<stop offset="0.2601" stop-color="#00BEFF"/>
<stop offset="0.5122" stop-color="#00D2FF"/>
<stop offset="0.7604" stop-color="#00DFFF"/>
<stop offset="1" stop-color="#00E3FF"/>
</linearGradient>
<linearGradient id="paint1_linear_218_3926" x1="28.1771" y1="13.9168" x2="8.71353" y2="13.9168" gradientUnits="userSpaceOnUse">
<stop stop-color="#FFE000"/>
<stop offset="0.4087" stop-color="#FFBD00"/>
<stop offset="0.7754" stop-color="#FFA500"/>
<stop offset="1" stop-color="#FF9C00"/>
</linearGradient>
<linearGradient id="paint2_linear_218_3926" x1="20.9311" y1="15.4833" x2="10.9918" y2="35.2164" gradientUnits="userSpaceOnUse">
<stop stop-color="#FF3A44"/>
<stop offset="1" stop-color="#C31162"/>
</linearGradient>
<linearGradient id="paint3_linear_218_3926" x1="6.82893" y1="0.400622" x2="11.2627" y2="9.21264" gradientUnits="userSpaceOnUse">
<stop stop-color="#32A071"/>
<stop offset="0.0685" stop-color="#2DA771"/>
<stop offset="0.4762" stop-color="#15CF74"/>
<stop offset="0.8009" stop-color="#06E775"/>
<stop offset="1" stop-color="#00F076"/>
</linearGradient>
<clipPath id="clip0_218_3926">
<rect width="109.038" height="27.2762" fill="white" transform="translate(0.961426 0.278687)"/>
</clipPath>
</defs>
</svg>
