<svg width="36" height="35" viewBox="0 0 36 35" fill="none" xmlns="http://www.w3.org/2000/svg">
<path d="M17.862 23.0999C20.9548 23.0999 23.462 20.5927 23.462 17.4999C23.462 14.4071 20.9548 11.8999 17.862 11.8999C14.7692 11.8999 12.262 14.4071 12.262 17.4999C12.262 20.5927 14.7692 23.0999 17.862 23.0999Z" fill="#833B2D"/>
<path d="M25.562 0H10.162C7.56285 0 5.07018 1.0325 3.23232 2.87035C1.39447 4.70821 0.361969 7.20088 0.361969 9.8V25.2C0.361969 27.7991 1.39447 30.2918 3.23232 32.1296C5.07018 33.9675 7.56285 35 10.162 35H25.562C28.1611 35 30.6538 33.9675 32.4916 32.1296C34.3295 30.2918 35.362 27.7991 35.362 25.2V9.8C35.362 7.20088 34.3295 4.70821 32.4916 2.87035C30.6538 1.0325 28.1611 0 25.562 0ZM17.862 25.9C16.2006 25.9 14.5766 25.4073 13.1952 24.4843C11.8138 23.5613 10.7372 22.2494 10.1014 20.7145C9.4656 19.1796 9.29926 17.4907 9.62337 15.8612C9.94749 14.2318 10.7475 12.7351 11.9223 11.5603C13.097 10.3855 14.5938 9.58552 16.2232 9.2614C17.8527 8.93729 19.5416 9.10364 21.0765 9.73941C22.6114 10.3752 23.9233 11.4518 24.8463 12.8332C25.7693 14.2146 26.262 15.8386 26.262 17.5C26.262 19.7278 25.377 21.8644 23.8017 23.4397C22.2264 25.015 20.0898 25.9 17.862 25.9ZM26.962 10.5C26.5466 10.5 26.1406 10.3768 25.7953 10.1461C25.4499 9.91534 25.1808 9.58736 25.0218 9.20364C24.8629 8.81991 24.8213 8.39767 24.9023 7.99031C24.9833 7.58295 25.1834 7.20877 25.477 6.91508C25.7707 6.62139 26.1449 6.42138 26.5523 6.34035C26.9596 6.25932 27.3819 6.30091 27.7656 6.45985C28.1493 6.6188 28.4773 6.88796 28.7081 7.2333C28.9388 7.57865 29.062 7.98466 29.062 8.4C29.062 8.95695 28.8407 9.4911 28.4469 9.88492C28.0531 10.2788 27.5189 10.5 26.962 10.5Z" fill="#833B2D"/>
</svg>
