<svg width="100" height="100" viewBox="0 0 100 100" fill="none" xmlns="http://www.w3.org/2000/svg">
<path fill-rule="evenodd" clip-rule="evenodd" d="M43.4872 3.76186C55.3645 4.13223 67.7236 0.050365 77.6639 6.58592C89.4921 14.3627 100.781 26.7215 99.9576 40.89C99.1497 54.7959 83.5443 61.3998 73.8978 71.4139C63.9418 81.7494 57.6481 97.3549 43.4872 99.5127C28.1731 101.846 10.0349 95.7466 2.19064 82.3404C-5.15959 69.7786 8.26647 55.4288 9.18561 40.89C9.98498 28.2456 -1.46405 13.6763 7.11886 4.38617C15.6892 -4.89039 30.889 3.36902 43.4872 3.76186Z" fill="#FFE2AE"/>
<g clip-path="url(#clip0_639_701)">
<path d="M50 50C46.8833 50 44.3333 47.45 44.3333 44.3333C44.3333 41.2167 46.8833 38.6667 50 38.6667C53.1166 38.6667 55.6666 41.2167 55.6666 44.3333C55.6666 47.45 53.1166 50 50 50ZM67 44.9C67 34.615 59.4916 27.3333 50 27.3333C40.5083 27.3333 33 34.615 33 44.9C33 51.53 38.525 60.3133 50 70.7967C61.475 60.3133 67 51.53 67 44.9ZM50 21.6667C61.9 21.6667 72.6666 30.79 72.6666 44.9C72.6666 54.3067 65.1016 65.4417 50 78.3333C34.8983 65.4417 27.3333 54.3067 27.3333 44.9C27.3333 30.79 38.1 21.6667 50 21.6667Z" fill="#DD6666"/>
</g>
<defs>
<clipPath id="clip0_639_701">
<rect width="68" height="68" fill="white" transform="translate(16 16)"/>
</clipPath>
</defs>
</svg>
