<svg width="100" height="100" viewBox="0 0 100 100" fill="none" xmlns="http://www.w3.org/2000/svg">
<path fill-rule="evenodd" clip-rule="evenodd" d="M43.9604 0.00479465C59.5595 0.218996 72.4223 9.35309 82.8459 19.1435C92.6174 28.3214 102.88 39.9898 99.2545 51.94C95.85 63.1631 76.5865 63.0756 67.0017 71.3734C57.1271 79.9219 57.9224 97.8667 43.9604 99.8089C30.1187 101.734 19.9362 88.6992 11.817 79.0502C5.16734 71.1475 4.94906 61.5713 3.68116 51.94C2.14498 40.2708 -3.83262 27.8834 3.78777 18.0579C12.4223 6.92464 28.1891 -0.211772 43.9604 0.00479465Z" fill="#FFEECF"/>
<path d="M77.8182 16.0455C74.3873 14.9636 70.6164 14.5 67 14.5C60.9727 14.5 54.4818 15.7364 50 19.1364C45.5182 15.7364 39.0273 14.5 33 14.5C26.9727 14.5 20.4818 15.7364 16 19.1364V64.4182C16 65.1909 16.7727 65.9636 17.5455 65.9636C17.8545 65.9636 18.0091 65.8091 18.3182 65.8091C22.4909 63.8 28.5182 62.4091 33 62.4091C39.0273 62.4091 45.5182 63.6455 50 67.0455C54.1727 64.4182 61.7455 62.4091 67 62.4091C72.1 62.4091 77.3545 63.3364 81.6818 65.6545C81.9909 65.8091 82.1455 65.8091 82.4545 65.8091C83.2273 65.8091 84 65.0364 84 64.2636V19.1364C82.1455 17.7455 80.1364 16.8182 77.8182 16.0455ZM77.8182 57.7727C74.4182 56.6909 70.7091 56.2273 67 56.2273C61.7455 56.2273 54.1727 58.2364 50 60.8636V25.3182C54.1727 22.6909 61.7455 20.6818 67 20.6818C70.7091 20.6818 74.4182 21.1455 77.8182 22.2273V57.7727Z" fill="#EFA191"/>
<path d="M67 33.0455C69.72 33.0455 72.3473 33.3237 74.7273 33.8491V29.1509C72.2855 28.6873 69.6582 28.4091 67 28.4091C61.7455 28.4091 56.9855 29.3055 53.0909 30.9746V36.1055C56.5837 34.1273 61.4364 33.0455 67 33.0455Z" fill="#EFA191"/>
<path d="M53.0911 39.196V44.3269C56.5838 42.3487 61.4365 41.2669 67.0002 41.2669C69.7202 41.2669 72.3474 41.5451 74.7274 42.0706V37.3724C72.2856 36.9087 69.6583 36.6306 67.0002 36.6306C61.7456 36.6306 56.9856 37.5578 53.0911 39.196Z" fill="#EFA191"/>
<path d="M67.0002 44.8838C61.7456 44.8838 56.9856 45.7802 53.0911 47.4492V52.5802C56.5838 50.602 61.4365 49.5202 67.0002 49.5202C69.7202 49.5202 72.3474 49.7983 74.7274 50.3238V45.6256C72.2856 45.1311 69.6583 44.8838 67.0002 44.8838Z" fill="#EFA191"/>
</svg>
