<svg width="30" height="36" viewBox="0 0 30 36" fill="none" xmlns="http://www.w3.org/2000/svg">
<path d="M24.5899 20.1175C23.6274 15.2712 28.2264 12.4292 28.2264 12.4292C28.2264 12.4292 26.4333 9.83916 23.4233 9.17416C20.4133 8.50449 18.9071 9.33632 17.4044 9.96749C15.8994 10.5928 15.1481 10.5928 15.1481 10.5928C12.9769 10.5928 11.3891 8.29449 7.24861 9.34449C4.40077 10.0632 1.39777 13.3532 0.855273 17.2825C0.311607 21.2107 1.48294 26.2238 3.73927 30.1088C5.99794 33.9962 8.29627 35.4592 9.92611 35.5C11.5559 35.5408 13.1858 34.331 15.1504 34.0347C17.1151 33.7477 18.3214 34.7498 20.2488 35.2923C22.1714 35.8348 22.8434 35.3285 25.0519 33.449C27.2686 31.5695 29.2788 26.1737 29.2788 26.1737C29.2788 26.1737 25.5536 24.9697 24.5899 20.1175Z" fill="black"/>
<path d="M20.3294 6.03816C22.4621 3.86233 21.7376 0.50116 21.7376 0.50116C21.7376 0.50116 18.7439 1.02266 16.7384 3.11216C14.7306 5.20399 15.0631 8.50099 15.0631 8.50099C15.0631 8.50099 18.1944 8.21166 20.3294 6.03816Z" fill="black"/>
</svg>
