<svg width="35" height="36" viewBox="0 0 35 36" fill="none" xmlns="http://www.w3.org/2000/svg">
<path d="M2.39844 10.4736C3.45801 8.26561 4.95508 6.3994 6.8418 4.84765C9.39844 2.73534 12.3311 1.46386 15.6191 1.07421C19.4814 0.6162 23.1113 1.34765 26.4678 3.35741C27.3018 3.85643 28.0811 4.42382 28.8262 5.03905C29.0107 5.18944 28.9902 5.27831 28.833 5.4287C27.3086 6.94628 25.7842 8.46386 24.2734 9.99511C24.0957 10.1728 24 10.1592 23.8086 10.0156C19.3789 6.60448 12.9189 7.52733 9.61719 12.0391C9.03613 12.832 8.56445 13.6865 8.23633 14.6162C8.20898 14.6982 8.1543 14.7734 8.11328 14.8555C7.23145 14.1855 6.34277 13.5156 5.46777 12.8389C4.44238 12.0527 3.41699 11.2666 2.39844 10.4736Z" fill="#E94335"/>
<path d="M8.11328 21.2676C8.40723 21.917 8.65332 22.5938 9.02246 23.2021C10.5742 25.7451 12.7891 27.3789 15.708 27.96C18.3398 28.4863 20.8691 28.1309 23.2275 26.8115C23.3096 26.7705 23.3916 26.7295 23.4668 26.6885C23.5078 26.7295 23.542 26.7773 23.583 26.8115C25.3467 28.1787 27.1172 29.5459 28.8809 30.9131C28.0332 31.7539 27.0693 32.4307 26.0439 33.0186C23.0703 34.7139 19.8506 35.3975 16.46 35.1377C12.2354 34.8096 8.5918 33.1416 5.58398 30.1338C4.26465 28.8145 3.17773 27.3242 2.3916 25.6221C3.12305 25.0615 3.85449 24.5078 4.58594 23.9473C5.76172 23.0518 6.9375 22.1631 8.11328 21.2676Z" fill="#34A853"/>
<path d="M28.8877 30.9131C27.124 29.5459 25.3535 28.1787 23.5898 26.8115C23.5488 26.7773 23.5078 26.7295 23.4736 26.6885C24.082 26.2168 24.7041 25.7588 25.2031 25.1572C26.0371 24.1592 26.5908 23.0313 26.8779 21.7666C26.9121 21.6094 26.8847 21.5547 26.7275 21.5615C26.6455 21.5684 26.5703 21.5615 26.4882 21.5615C23.6992 21.5615 20.9033 21.5547 18.1142 21.5684C17.8066 21.5684 17.7382 21.4863 17.7451 21.1924C17.7588 19.21 17.7588 17.2275 17.7451 15.2451C17.7451 14.9922 17.8134 14.9238 18.0664 14.9238C23.1797 14.9307 28.2929 14.9307 33.4131 14.9238C33.6318 14.9238 33.7207 14.9785 33.7754 15.2109C34.1923 17.0908 34.165 18.9775 33.9121 20.8779C33.707 22.3955 33.3379 23.8652 32.7705 25.2871C31.9297 27.3857 30.6923 29.2178 29.0654 30.79C29.0039 30.8379 28.9423 30.8721 28.8877 30.9131Z" fill="#4285F3"/>
<path d="M8.11337 21.2676C6.93758 22.1631 5.7618 23.0518 4.58602 23.9473C3.85458 24.501 3.12313 25.0615 2.39169 25.6221C1.8243 24.5693 1.45516 23.4551 1.15438 22.3066C0.580162 20.085 0.491295 17.8291 0.805748 15.5664C1.05184 13.7891 1.56454 12.0801 2.39169 10.4805C3.41708 11.2666 4.43563 12.0596 5.46102 12.8457C6.34286 13.5225 7.22469 14.1924 8.10653 14.8623C7.95614 15.5938 7.74422 16.3115 7.67587 17.0635C7.55282 18.4307 7.6827 19.7637 8.07235 21.0762C8.09969 21.1309 8.10653 21.1992 8.11337 21.2676Z" fill="#FABB06"/>
</svg>
