<svg width="18" height="36" viewBox="0 0 18 36" fill="none" xmlns="http://www.w3.org/2000/svg">
<path d="M11.5752 35.2607C11.4043 35.2676 11.2949 35.2812 11.1855 35.2812C8.84766 35.2812 6.5166 35.2744 4.17871 35.2881C3.85059 35.2881 3.76172 35.1992 3.76172 34.8711C3.76855 29.4297 3.76856 23.9814 3.76856 18.54C3.76856 18.3965 3.76856 18.2529 3.76856 18.0683C2.49707 18.0683 1.25977 18.0683 0.00195312 18.0683C0.00195312 16.1269 0.00195312 14.2197 0.00195312 12.2578C0.131836 12.2578 0.254882 12.2578 0.371093 12.2578C1.39648 12.2578 2.42187 12.251 3.44727 12.2646C3.70703 12.2646 3.77539 12.1894 3.77539 11.9365C3.76172 10.4121 3.76172 8.88085 3.77539 7.35643C3.78223 6.29003 3.95312 5.25096 4.44531 4.2871C5.14941 2.92674 6.26367 2.04491 7.67188 1.49803C8.82031 1.04686 10.0303 0.882799 11.2471 0.862291C13.2295 0.834948 15.2119 0.848619 17.1943 0.841783C17.3789 0.841783 17.5293 0.834948 17.5293 1.09471C17.5225 2.9746 17.5225 4.85448 17.5225 6.73436C17.5225 6.75487 17.5156 6.77538 17.4883 6.86424C17.3721 6.86424 17.2422 6.86424 17.1123 6.86424C15.8818 6.86424 14.6514 6.85741 13.4209 6.86424C12.71 6.86424 12.1357 7.15135 11.7734 7.77342C11.6641 7.95799 11.5957 8.19725 11.5957 8.416C11.5752 9.57811 11.5957 10.7402 11.582 11.9023C11.582 12.1758 11.6641 12.251 11.9307 12.251C13.6396 12.2373 15.3486 12.2441 17.0576 12.2441C17.1943 12.2441 17.3242 12.2441 17.5566 12.2441C17.3174 14.1992 17.085 16.1133 16.8457 18.0478C15.0684 18.0478 13.3389 18.0478 11.5752 18.0478C11.5752 23.7969 11.5752 29.5117 11.5752 35.2607Z" fill="#3B56A7"/>
</svg>
