<svg width="43" height="35" viewBox="0 0 43 35" fill="none" xmlns="http://www.w3.org/2000/svg">
<path fill-rule="evenodd" clip-rule="evenodd" d="M42.3619 4.13502C41.1743 5.94 39.7298 7.48241 38.0286 8.76231V9.89452C38.0286 12.8481 37.499 15.8017 36.4397 18.7553C35.3162 21.7745 33.7434 24.4655 31.7212 26.8284C29.5384 29.3554 26.9705 31.3244 24.0174 32.7356C20.7754 34.2452 17.2606 35 13.473 35C11.0655 35 8.72233 34.6554 6.4433 33.9662C4.22847 33.3099 2.14206 32.3418 0.184021 31.0619C0.858101 31.1275 1.54822 31.1603 2.2544 31.1603C4.24454 31.1603 6.1544 30.8322 7.98405 30.1758C9.81369 29.5195 11.4828 28.6006 12.9915 27.4191C11.1297 27.3535 9.4606 26.7546 7.98405 25.6224C6.50749 24.4901 5.49639 23.038 4.9507 21.2658C5.46429 21.3643 5.99391 21.4135 6.5396 21.4135C7.30997 21.4135 8.06429 21.3151 8.80257 21.1181C7.51861 20.8556 6.34701 20.3059 5.28774 19.4691C4.22847 18.6322 3.40194 17.5985 2.8081 16.3678C2.21427 15.1371 1.90131 13.8326 1.86921 12.4543V12.3066C3.08898 13.0286 4.40502 13.406 5.81737 13.4388C4.62971 12.6184 3.69083 11.56 3.0007 10.2637C2.31057 8.96741 1.96551 7.56447 1.96551 6.05485C1.96551 4.4796 2.35069 3.00282 3.12107 1.62447C5.3038 4.34835 7.91983 6.51429 10.9692 8.12236C14.0828 9.76325 17.405 10.6821 20.9359 10.879C20.8075 10.2227 20.7433 9.54993 20.7433 8.86076C20.7433 7.25269 21.1285 5.77591 21.8989 4.43038C22.6693 3.08485 23.7205 2.01008 25.0526 1.20605C26.3847 0.402012 27.8211 0 29.3619 0C30.5817 0 31.7372 0.24613 32.8286 0.738397C33.9199 1.23066 34.8669 1.91983 35.6693 2.80591C37.6274 2.41209 39.457 1.69011 41.1582 0.639944C40.8372 1.69011 40.3477 2.63361 39.6897 3.47046C39.0317 4.30732 38.2533 5.00469 37.3545 5.56259C39.12 5.33286 40.7891 4.85701 42.3619 4.13502Z" fill="#833B2D"/>
</svg>
