<svg width="100" height="100" viewBox="0 0 100 100" fill="none" xmlns="http://www.w3.org/2000/svg">
<path fill-rule="evenodd" clip-rule="evenodd" d="M49.8255 1.01026C63.4319 2.92944 73.9999 12.2044 83.2691 22.3784C91.9957 31.9569 101.272 43.0269 99.856 55.9247C98.5111 68.1788 86.5577 75.5417 76.636 82.8175C68.6541 88.6709 59.5163 90.6447 49.8255 92.6134C36.0327 95.4155 20.4963 105.156 9.39693 96.4774C-1.79418 87.7277 3.56176 70.1419 2.90009 55.9247C2.18165 40.4876 -4.58901 23.1338 5.43745 11.4003C15.7165 -0.628744 34.1847 -1.19587 49.8255 1.01026Z" fill="#FFDFD9"/>
<g clip-path="url(#clip0_639_693)">
<path d="M18.8334 41.5L24.5 47.1667C38.5817 33.085 61.4184 33.085 75.5 47.1667L81.1667 41.5C63.9684 24.3017 36.06 24.3017 18.8334 41.5ZM41.5 64.1667L50 72.6667L58.5 64.1667C53.825 59.4633 46.2034 59.4633 41.5 64.1667ZM30.1667 52.8333L35.8334 58.5C43.6534 50.68 56.3467 50.68 64.1667 58.5L69.8334 52.8333C58.8967 41.8967 41.1317 41.8967 30.1667 52.8333Z" fill="#EFA191"/>
</g>
<defs>
<clipPath id="clip0_639_693">
<rect width="68" height="68" fill="white" transform="translate(16 16)"/>
</clipPath>
</defs>
</svg>
